<mxfile host="Electron" agent="Mozilla/5.0 (Windows NT 10.0; Win64; x64) AppleWebKit/537.36 (KHTML, like Gecko) draw.io/28.1.2 Chrome/138.0.7204.243 Electron/37.4.0 Safari/537.36" version="28.1.2">
  <diagram name="PÃ¡gina-1" id="8awx7tEjWG3nQGSmaVeA">
    <mxGraphModel dx="1933" dy="661" grid="1" gridSize="10" guides="1" tooltips="1" connect="1" arrows="1" fold="1" page="1" pageScale="1" pageWidth="827" pageHeight="1169" math="0" shadow="0">
      <root>
        <mxCell id="0" />
        <mxCell id="1" parent="0" />
        <mxCell id="rmm2oyO1dVZ2sbG1EcQN-1" value="" style="rounded=0;whiteSpace=wrap;html=1;fillStyle=solid;gradientColor=none;fillColor=#007FFF;" vertex="1" parent="1">
          <mxGeometry x="110" y="150" width="120" height="60" as="geometry" />
        </mxCell>
        <mxCell id="rmm2oyO1dVZ2sbG1EcQN-2" value="" style="rounded=0;whiteSpace=wrap;html=1;fillColor=#007FFF;" vertex="1" parent="1">
          <mxGeometry x="620" y="150" width="120" height="60" as="geometry" />
        </mxCell>
        <mxCell id="rmm2oyO1dVZ2sbG1EcQN-3" value="" style="rhombus;whiteSpace=wrap;html=1;strokeColor=#000000;fillColor=#009900;" vertex="1" parent="1">
          <mxGeometry x="349" y="140" width="130" height="80" as="geometry" />
        </mxCell>
        <mxCell id="rmm2oyO1dVZ2sbG1EcQN-4" value="" style="endArrow=none;html=1;rounded=0;exitX=1;exitY=0.5;exitDx=0;exitDy=0;" edge="1" parent="1" source="rmm2oyO1dVZ2sbG1EcQN-1" target="rmm2oyO1dVZ2sbG1EcQN-3">
          <mxGeometry width="50" height="50" relative="1" as="geometry">
            <mxPoint x="390" y="370" as="sourcePoint" />
            <mxPoint x="440" y="320" as="targetPoint" />
          </mxGeometry>
        </mxCell>
        <mxCell id="rmm2oyO1dVZ2sbG1EcQN-5" value="" style="endArrow=none;html=1;rounded=0;entryX=0;entryY=0.5;entryDx=0;entryDy=0;exitX=1;exitY=0.5;exitDx=0;exitDy=0;" edge="1" parent="1" source="rmm2oyO1dVZ2sbG1EcQN-3" target="rmm2oyO1dVZ2sbG1EcQN-2">
          <mxGeometry width="50" height="50" relative="1" as="geometry">
            <mxPoint x="390" y="370" as="sourcePoint" />
            <mxPoint x="440" y="320" as="targetPoint" />
          </mxGeometry>
        </mxCell>
        <mxCell id="rmm2oyO1dVZ2sbG1EcQN-6" value="(0,N)" style="text;strokeColor=none;align=center;fillColor=none;html=1;verticalAlign=middle;whiteSpace=wrap;rounded=0;" vertex="1" parent="1">
          <mxGeometry x="550" y="150" width="60" height="30" as="geometry" />
        </mxCell>
        <mxCell id="rmm2oyO1dVZ2sbG1EcQN-7" value="(20,20)" style="text;strokeColor=none;align=center;fillColor=none;html=1;verticalAlign=middle;whiteSpace=wrap;rounded=0;" vertex="1" parent="1">
          <mxGeometry x="230" y="150" width="60" height="30" as="geometry" />
        </mxCell>
        <mxCell id="rmm2oyO1dVZ2sbG1EcQN-8" value="(N,M)" style="text;strokeColor=none;align=center;fillColor=none;html=1;verticalAlign=middle;whiteSpace=wrap;rounded=0;" vertex="1" parent="1">
          <mxGeometry x="384" y="110" width="60" height="30" as="geometry" />
        </mxCell>
        <mxCell id="rmm2oyO1dVZ2sbG1EcQN-9" value="" style="rounded=0;whiteSpace=wrap;html=1;fillStyle=solid;gradientColor=none;fillColor=#007FFF;" vertex="1" parent="1">
          <mxGeometry x="110" y="390" width="120" height="60" as="geometry" />
        </mxCell>
        <mxCell id="rmm2oyO1dVZ2sbG1EcQN-10" value="" style="rounded=0;whiteSpace=wrap;html=1;fillColor=#007FFF;" vertex="1" parent="1">
          <mxGeometry x="620" y="390" width="120" height="60" as="geometry" />
        </mxCell>
        <mxCell id="rmm2oyO1dVZ2sbG1EcQN-11" value="" style="rhombus;whiteSpace=wrap;html=1;strokeColor=#000000;fillColor=#009900;" vertex="1" parent="1">
          <mxGeometry x="349" y="380" width="130" height="80" as="geometry" />
        </mxCell>
        <mxCell id="rmm2oyO1dVZ2sbG1EcQN-12" value="" style="endArrow=none;html=1;rounded=0;exitX=1;exitY=0.5;exitDx=0;exitDy=0;" edge="1" parent="1" source="rmm2oyO1dVZ2sbG1EcQN-9" target="rmm2oyO1dVZ2sbG1EcQN-11">
          <mxGeometry width="50" height="50" relative="1" as="geometry">
            <mxPoint x="390" y="610" as="sourcePoint" />
            <mxPoint x="440" y="560" as="targetPoint" />
          </mxGeometry>
        </mxCell>
        <mxCell id="rmm2oyO1dVZ2sbG1EcQN-13" value="" style="endArrow=none;html=1;rounded=0;entryX=0;entryY=0.5;entryDx=0;entryDy=0;exitX=1;exitY=0.5;exitDx=0;exitDy=0;" edge="1" parent="1" source="rmm2oyO1dVZ2sbG1EcQN-11" target="rmm2oyO1dVZ2sbG1EcQN-10">
          <mxGeometry width="50" height="50" relative="1" as="geometry">
            <mxPoint x="390" y="610" as="sourcePoint" />
            <mxPoint x="440" y="560" as="targetPoint" />
          </mxGeometry>
        </mxCell>
        <mxCell id="rmm2oyO1dVZ2sbG1EcQN-14" value="(1,1)" style="text;strokeColor=none;align=center;fillColor=none;html=1;verticalAlign=middle;whiteSpace=wrap;rounded=0;" vertex="1" parent="1">
          <mxGeometry x="560" y="390" width="60" height="30" as="geometry" />
        </mxCell>
        <mxCell id="rmm2oyO1dVZ2sbG1EcQN-15" value="(16,24)" style="text;strokeColor=none;align=center;fillColor=none;html=1;verticalAlign=middle;whiteSpace=wrap;rounded=0;" vertex="1" parent="1">
          <mxGeometry x="230" y="390" width="60" height="30" as="geometry" />
        </mxCell>
        <mxCell id="rmm2oyO1dVZ2sbG1EcQN-16" value="(1,N)" style="text;strokeColor=none;align=center;fillColor=none;html=1;verticalAlign=middle;whiteSpace=wrap;rounded=0;" vertex="1" parent="1">
          <mxGeometry x="384" y="350" width="60" height="30" as="geometry" />
        </mxCell>
        <mxCell id="rmm2oyO1dVZ2sbG1EcQN-17" value="Pilot" style="text;strokeColor=none;align=center;fillColor=none;html=1;verticalAlign=middle;whiteSpace=wrap;rounded=0;fontColor=#FFFFFF;fontSize=25;" vertex="1" parent="1">
          <mxGeometry x="110" y="150" width="120" height="60" as="geometry" />
        </mxCell>
        <mxCell id="rmm2oyO1dVZ2sbG1EcQN-18" value="Pilot" style="text;strokeColor=none;align=center;fillColor=none;html=1;verticalAlign=middle;whiteSpace=wrap;rounded=0;fontColor=#FFFFFF;fontSize=25;" vertex="1" parent="1">
          <mxGeometry x="-140" y="350" width="120" height="60" as="geometry" />
        </mxCell>
        <mxCell id="rmm2oyO1dVZ2sbG1EcQN-19" value="Cursa" style="text;strokeColor=none;align=center;fillColor=none;html=1;verticalAlign=middle;whiteSpace=wrap;rounded=0;fontColor=#FFFFFF;fontSize=25;" vertex="1" parent="1">
          <mxGeometry x="620" y="150" width="120" height="60" as="geometry" />
        </mxCell>
        <mxCell id="rmm2oyO1dVZ2sbG1EcQN-20" value="Cursa" style="text;strokeColor=none;align=center;fillColor=none;html=1;verticalAlign=middle;whiteSpace=wrap;rounded=0;fontColor=#FFFFFF;fontSize=25;" vertex="1" parent="1">
          <mxGeometry x="110" y="390" width="120" height="60" as="geometry" />
        </mxCell>
        <mxCell id="rmm2oyO1dVZ2sbG1EcQN-21" value="Temporada" style="text;strokeColor=none;align=center;fillColor=none;html=1;verticalAlign=middle;whiteSpace=wrap;rounded=0;fontColor=#FFFFFF;fontSize=25;" vertex="1" parent="1">
          <mxGeometry x="620" y="390" width="120" height="60" as="geometry" />
        </mxCell>
        <mxCell id="rmm2oyO1dVZ2sbG1EcQN-23" value="" style="rounded=0;whiteSpace=wrap;html=1;fillStyle=solid;gradientColor=none;fillColor=#007FFF;" vertex="1" parent="1">
          <mxGeometry x="110" y="630" width="120" height="60" as="geometry" />
        </mxCell>
        <mxCell id="rmm2oyO1dVZ2sbG1EcQN-24" value="" style="rounded=0;whiteSpace=wrap;html=1;fillColor=#007FFF;" vertex="1" parent="1">
          <mxGeometry x="620" y="630" width="120" height="60" as="geometry" />
        </mxCell>
        <mxCell id="rmm2oyO1dVZ2sbG1EcQN-25" value="" style="rhombus;whiteSpace=wrap;html=1;strokeColor=#000000;fillColor=#009900;" vertex="1" parent="1">
          <mxGeometry x="349" y="620" width="130" height="80" as="geometry" />
        </mxCell>
        <mxCell id="rmm2oyO1dVZ2sbG1EcQN-26" value="" style="endArrow=none;html=1;rounded=0;exitX=1;exitY=0.5;exitDx=0;exitDy=0;" edge="1" parent="1" source="rmm2oyO1dVZ2sbG1EcQN-23" target="rmm2oyO1dVZ2sbG1EcQN-25">
          <mxGeometry width="50" height="50" relative="1" as="geometry">
            <mxPoint x="390" y="850" as="sourcePoint" />
            <mxPoint x="440" y="800" as="targetPoint" />
          </mxGeometry>
        </mxCell>
        <mxCell id="rmm2oyO1dVZ2sbG1EcQN-27" value="" style="endArrow=none;html=1;rounded=0;entryX=0;entryY=0.5;entryDx=0;entryDy=0;exitX=1;exitY=0.5;exitDx=0;exitDy=0;" edge="1" parent="1" source="rmm2oyO1dVZ2sbG1EcQN-25" target="rmm2oyO1dVZ2sbG1EcQN-24">
          <mxGeometry width="50" height="50" relative="1" as="geometry">
            <mxPoint x="390" y="850" as="sourcePoint" />
            <mxPoint x="440" y="800" as="targetPoint" />
          </mxGeometry>
        </mxCell>
        <mxCell id="rmm2oyO1dVZ2sbG1EcQN-28" value="(0,M)" style="text;strokeColor=none;align=center;fillColor=none;html=1;verticalAlign=middle;whiteSpace=wrap;rounded=0;" vertex="1" parent="1">
          <mxGeometry x="560" y="630" width="60" height="30" as="geometry" />
        </mxCell>
        <mxCell id="rmm2oyO1dVZ2sbG1EcQN-29" value="(0,N)" style="text;strokeColor=none;align=center;fillColor=none;html=1;verticalAlign=middle;whiteSpace=wrap;rounded=0;" vertex="1" parent="1">
          <mxGeometry x="230" y="630" width="60" height="30" as="geometry" />
        </mxCell>
        <mxCell id="rmm2oyO1dVZ2sbG1EcQN-30" value="(N,M)" style="text;strokeColor=none;align=center;fillColor=none;html=1;verticalAlign=middle;whiteSpace=wrap;rounded=0;" vertex="1" parent="1">
          <mxGeometry x="384" y="590" width="60" height="30" as="geometry" />
        </mxCell>
        <mxCell id="rmm2oyO1dVZ2sbG1EcQN-31" value="Usuari" style="text;strokeColor=none;align=center;fillColor=none;html=1;verticalAlign=middle;whiteSpace=wrap;rounded=0;fontColor=#FFFFFF;fontSize=25;" vertex="1" parent="1">
          <mxGeometry x="110" y="630" width="120" height="60" as="geometry" />
        </mxCell>
        <mxCell id="rmm2oyO1dVZ2sbG1EcQN-32" value="Comunitat" style="text;strokeColor=none;align=center;fillColor=none;html=1;verticalAlign=middle;whiteSpace=wrap;rounded=0;fontColor=#FFFFFF;fontSize=25;" vertex="1" parent="1">
          <mxGeometry x="620" y="630" width="120" height="60" as="geometry" />
        </mxCell>
        <mxCell id="rmm2oyO1dVZ2sbG1EcQN-33" value="" style="rounded=0;whiteSpace=wrap;html=1;fillStyle=solid;gradientColor=none;fillColor=#007FFF;" vertex="1" parent="1">
          <mxGeometry x="110" y="840" width="120" height="60" as="geometry" />
        </mxCell>
        <mxCell id="rmm2oyO1dVZ2sbG1EcQN-34" value="" style="rounded=0;whiteSpace=wrap;html=1;fillColor=#007FFF;" vertex="1" parent="1">
          <mxGeometry x="620" y="840" width="120" height="60" as="geometry" />
        </mxCell>
        <mxCell id="rmm2oyO1dVZ2sbG1EcQN-35" value="" style="rhombus;whiteSpace=wrap;html=1;strokeColor=#000000;fillColor=#009900;" vertex="1" parent="1">
          <mxGeometry x="349" y="830" width="130" height="80" as="geometry" />
        </mxCell>
        <mxCell id="rmm2oyO1dVZ2sbG1EcQN-36" value="" style="endArrow=none;html=1;rounded=0;exitX=1;exitY=0.5;exitDx=0;exitDy=0;" edge="1" parent="1" source="rmm2oyO1dVZ2sbG1EcQN-33" target="rmm2oyO1dVZ2sbG1EcQN-35">
          <mxGeometry width="50" height="50" relative="1" as="geometry">
            <mxPoint x="390" y="1060" as="sourcePoint" />
            <mxPoint x="440" y="1010" as="targetPoint" />
          </mxGeometry>
        </mxCell>
        <mxCell id="rmm2oyO1dVZ2sbG1EcQN-37" value="" style="endArrow=none;html=1;rounded=0;entryX=0;entryY=0.5;entryDx=0;entryDy=0;exitX=1;exitY=0.5;exitDx=0;exitDy=0;" edge="1" parent="1" source="rmm2oyO1dVZ2sbG1EcQN-35" target="rmm2oyO1dVZ2sbG1EcQN-34">
          <mxGeometry width="50" height="50" relative="1" as="geometry">
            <mxPoint x="390" y="1060" as="sourcePoint" />
            <mxPoint x="440" y="1010" as="targetPoint" />
          </mxGeometry>
        </mxCell>
        <mxCell id="rmm2oyO1dVZ2sbG1EcQN-38" value="(1,M)" style="text;strokeColor=none;align=center;fillColor=none;html=1;verticalAlign=middle;whiteSpace=wrap;rounded=0;" vertex="1" parent="1">
          <mxGeometry x="560" y="840" width="60" height="30" as="geometry" />
        </mxCell>
        <mxCell id="rmm2oyO1dVZ2sbG1EcQN-39" value="(2,2)" style="text;strokeColor=none;align=center;fillColor=none;html=1;verticalAlign=middle;whiteSpace=wrap;rounded=0;" vertex="1" parent="1">
          <mxGeometry x="230" y="840" width="60" height="30" as="geometry" />
        </mxCell>
        <mxCell id="rmm2oyO1dVZ2sbG1EcQN-40" value="(N,M)" style="text;strokeColor=none;align=center;fillColor=none;html=1;verticalAlign=middle;whiteSpace=wrap;rounded=0;" vertex="1" parent="1">
          <mxGeometry x="384" y="800" width="60" height="30" as="geometry" />
        </mxCell>
        <mxCell id="rmm2oyO1dVZ2sbG1EcQN-41" value="Jugador" style="text;strokeColor=none;align=center;fillColor=none;html=1;verticalAlign=middle;whiteSpace=wrap;rounded=0;fontColor=#FFFFFF;fontSize=25;" vertex="1" parent="1">
          <mxGeometry x="110" y="840" width="120" height="60" as="geometry" />
        </mxCell>
        <mxCell id="rmm2oyO1dVZ2sbG1EcQN-42" value="Combat" style="text;strokeColor=none;align=center;fillColor=none;html=1;verticalAlign=middle;whiteSpace=wrap;rounded=0;fontColor=#FFFFFF;fontSize=25;" vertex="1" parent="1">
          <mxGeometry x="620" y="840" width="120" height="60" as="geometry" />
        </mxCell>
      </root>
    </mxGraphModel>
  </diagram>
</mxfile>
